<svg id="Layer_1" data-name="Layer 1" xmlns="http://www.w3.org/2000/svg" width="735" height="212.58" viewBox="0 0 735 212.58"><defs><style>.cls-1{fill:#231f20;}.cls-2{fill:#091324;}.cls-3{fill:#fff;}.cls-4{fill:#eebd1b;}</style></defs><title>jain_university_logo_freelogovectors.net</title><path class="cls-1" d="M654.06,349.93v71.55c.05.61-.16.93-.81.89h-36c-2.07,0-1.78.22-1.78-1.83V291.21c0-2.06-.29-1.8,1.8-1.8,11.68,0,23.35,0,35,0a2.6,2.6,0,0,1,2.46,1.33q23.91,35.21,47.87,70.4c.33.47.67.93,1.25,1.73V291.4c0-2,0-2,1.93-2h35.86c.53,0,.83.13.79.72v130.3c0,1.95,0,1.95-2,1.95-11.62,0-23.25,0-34.88,0a2.77,2.77,0,0,1-2.64-1.37q-23.76-34.93-47.58-69.81l-1-1.4-.27.11" transform="translate(-7.5 -268.71)"/><path class="cls-1" d="M529.45,422.23a4.66,4.66,0,0,1-1.71.13H487.65c-.74.1-1-.27-1.24-.94-.67-2.33-1.38-4.66-2.06-7q-1.91-6.36-3.8-12.72c-.38-1.28-.39-1.29-1.76-1.29H434.66c-1.28,0-1.29,0-1.66,1.21q-2.85,9.72-5.71,19.43c-.39,1.28-.4,1.29-1.77,1.29H386.41l-1.28-.17a5.34,5.34,0,0,1,.62-2Q410,355.54,434.33,290.87c.57-1.46.57-1.47,2.19-1.47q20.75,0,41.53,0c2,0,1.59-.24,2.26,1.56q22.8,60.57,45.55,121.15c1,2.78,2.11,5.56,3.12,8.35a3.22,3.22,0,0,1,.47,1.76m-87.18-50.67h29.27c-4.86-15.83-9.71-31.55-14.54-47.27l-.29,0c-4.79,15.68-9.58,31.37-14.44,47.25" transform="translate(-7.5 -268.71)"/><path class="cls-1" d="M308.08,372.12c0,2.24.13,4.33.32,6.42a30.42,30.42,0,0,0,1.26,6.68,14.25,14.25,0,0,0,3.91,6,8.6,8.6,0,0,0,4.13,2.14,15.88,15.88,0,0,0,7.69-.19,10.32,10.32,0,0,0,6.44-5.35,24.19,24.19,0,0,0,2.22-7.91,70.77,70.77,0,0,0,.57-9.87V291.73c0-2.33,0-2.33,2.41-2.33h37c2,0,1.76-.24,1.76,1.69q0,35,0,69.92a169.77,169.77,0,0,1-1.16,21.86c-.73,5.63-1.74,11.22-4.08,16.45-3.6,8-9.6,13.89-17,18.39a46.05,46.05,0,0,1-17,6,89,89,0,0,1-34.63-1.36c-15-3.63-24.84-13.11-29.8-27.69a72,72,0,0,1-3.21-16.17c-.08-.86.21-1.09,1-1.2,4.51-.58,9-1.23,13.5-1.84l18-2.46,6.73-.9" transform="translate(-7.5 -268.71)"/><path class="cls-1" d="M585.64,355.83v64.75c0,1.78,0,1.79-1.82,1.79h-38.3c-.87.1-1.17-.32-1.06-1.14V291.42c0-2.25-.33-2,1.94-2q18.66,0,37.33,0c2.22,0,1.9-.31,1.9,1.84q0,32.28,0,64.58" transform="translate(-7.5 -268.71)"/><path class="cls-1" d="M309.22,439H348c2,0,1.74-.27,1.74,1.7q0,9.24,0,18.48c0,1.51.11,1.39-1.42,1.39H270c-1.14,0-1.17,0-1.17-1.13,0-2.33,0-4.65,0-7,0-4,0-8,0-12,0-1.57-.15-1.48,1.5-1.48h38.91" transform="translate(-7.5 -268.71)"/><path class="cls-1" d="M670.59,451.06c3.33,2.36,4.7,5.87,7,9.14h-4.67c-.61,0-.77-.54-1-.92-1.34-1.95-2.7-3.91-4-5.89a4.34,4.34,0,0,0-3.87-1.94c-.81,0-1,.29-1,1,0,2.16,0,4.32,0,6.49,0,1.2,0,1.24-1.26,1.2-1,0-2.14.43-2.77-.23s-.16-1.76-.16-2.67q0-8,0-16a3.79,3.79,0,0,1,.19-1.88c3.83.06,7.73-.22,11.6.16s6.13,3.82,5,7.58a5.11,5.11,0,0,1-3.08,3.33c-.52.22-1.07.37-1.9.64m-4.15-8.1c-1.08,0-2.44-.51-3.12.13s-.21,2.12-.29,3.23v1.13l.62.72a37.45,37.45,0,0,0,5.8-.19,2.53,2.53,0,0,0-.25-5c-.92-.06-1.84,0-2.75,0" transform="translate(-7.5 -268.71)"/><path class="cls-1" d="M603.44,452.69v-11c0-2.36,0-2.36,2.43-2.33h.8l.68.66v18.65c0,1.6.21,1.36-1.43,1.56-2.11.26-3.3-.53-4.31-2.39-1.76-3.21-3.82-6.27-5.75-9.4-.27-.45-.57-.89-1-1.44l-.2,1.31V459c0,1.15,0,1.18-1.14,1.18-.85,0-1.94.36-2.52-.15s-.24-1.73-.24-2.63c0-5.57,0-11.14,0-16.7,0-1.33,0-1.21,1.28-1.38,2.09-.29,3.29.47,4.33,2.35,2.07,3.78,4.46,7.39,6.71,11.07l.32-.07" transform="translate(-7.5 -268.71)"/><path class="cls-1" d="M655.21,460.14H639.52l-.14-1.32q0-9,0-18c0-1.53-.09-1.46,1.35-1.45,4.33,0,8.64,0,13,0,.79,0,1.13.17,1.1,1.07-.1,3.06.38,2.42-2.46,2.47-2.55,0-5.09,0-7.63,0-.74,0-1.22.07-1.15,1,.09,1.13.07,2.27.09,3.4a9.74,9.74,0,0,0,3.36.2c1.94,0,3.88,0,5.83,0,1.17,0,1.22,0,1.21,1.12,0,2.91.36,2.36-2.37,2.39-2.26,0-4.54,0-6.82,0-1.38,0-1.29,0-1.29,1.36,0,1.08.06,2.16,0,3.24-.06.9.32,1.06,1.12,1.05,3.08,0,6.16,0,9.24,0,1.26,0,1.26,0,1.29,1.21,0,.7,0,1.4,0,2.26" transform="translate(-7.5 -268.71)"/><path class="cls-1" d="M678.78,453.45c1.23-.13,2.3-.25,3.36-.38l.89.65c.9,3.21,3.26,3.49,5.69,3.18a3.26,3.26,0,0,0,2.41-1.49,2.09,2.09,0,0,0-.75-3.05,11.07,11.07,0,0,0-2.78-.92,21.33,21.33,0,0,1-5.17-1.76,5.47,5.47,0,0,1-2.16-7.56,5.68,5.68,0,0,1,3.51-2.67,12.44,12.44,0,0,1,7.05.06,5.63,5.63,0,0,1,4.15,5.72c-.69.06-1.38.06-2.06.18-1.21.17-2.22.23-2.52-1.39-.13-.69-.85-1.09-1.56-1.3a6.16,6.16,0,0,0-3.68,0c-.78.25-1.51.64-1.57,1.64s.58,1.46,1.36,1.81a19.93,19.93,0,0,0,3.24,1,23.48,23.48,0,0,1,3.84,1.22,5.69,5.69,0,0,1,3.65,5.91,5.88,5.88,0,0,1-4,5.53,12.29,12.29,0,0,1-8.12.1c-3-1-4.31-3.38-4.76-6.53" transform="translate(-7.5 -268.71)"/><path class="cls-1" d="M586.24,447.07c0,2.16.07,4.34,0,6.49-.18,4.48-2.58,6.81-7.05,6.95a17.46,17.46,0,0,1-4.2-.26,6.23,6.23,0,0,1-5-5.43c-.05-.92-.23-1.84-.23-2.75,0-3.84,0-7.67,0-11.51,0-1.17,0-1.2,1.11-1.19s2.17-.39,2.83.16.24,1.83.26,2.78c0,3.24,0,6.49,0,9.73l.06,1.62a3.5,3.5,0,0,0,3.29,3.24h1.61a3.1,3.1,0,0,0,3.1-3.12c.1-1.13.08-2.26.1-3.4,0-3.24,0-6.49,0-9.73,0-1.28,0-1.29,1.35-1.3.65,0,1.3,0,1.94,0s1,.19.94.91c0,1.24,0,2.49,0,3.73v3.08h-.06" transform="translate(-7.5 -268.71)"/><path class="cls-1" d="M430.22,445.41l-.42,1.14q-2.22,6.34-4.42,12.69l-.55.9a3.61,3.61,0,0,1-1.93-.05l-.52-1.13c-1.43-4.13-2.82-8.28-4.23-12.42-.13-.39-.28-.79-.5-1.43a2.41,2.41,0,0,0-.27,1.51c0,4.11,0,8.22,0,12.33l-.26,1.15a2.94,2.94,0,0,1-1.92,0l-.25-1v-8.77c0-2.64,0-5.3,0-7.94,0-.75.16-1.12,1-1s2-.34,2.69.17.66,1.54.94,2.35q2,6,4,12l.67,1.14c.76-2.25,1.54-4.48,2.3-6.71.9-2.6,1.8-5.21,2.66-7.83.24-.75.56-1.14,1.45-1.12,2.83.11,2.32-.34,2.33,2.29,0,5,0,10.07,0,15.1,0,1.56,0,1.56-1.65,1.5-.65,0-.81-.29-.79-.88,0-2.33,0-4.66,0-7v-6.89l-.29-.06" transform="translate(-7.5 -268.71)"/><path class="cls-1" d="M618,439.36c1.16,0,2.24,0,3.32,0a1.17,1.17,0,0,1,1.37,1c1.14,3.49,2.34,7,3.55,10.42a19.17,19.17,0,0,0,1.38,3.65,15.67,15.67,0,0,0,1.11-2.95c1.22-3.62,2.43-7.25,3.57-10.91a1.43,1.43,0,0,1,1.72-1.2c1,.09,1.93,0,2.87,0l-.18,1.33q-3.29,9.13-6.55,18.26c-.45,1.24-.45,1.26-1.81,1.24-1,0-2.24.39-3-.16s-.82-1.82-1.16-2.79q-2.85-7.9-5.67-15.84a4.47,4.47,0,0,1-.52-2" transform="translate(-7.5 -268.71)"/><path class="cls-1" d="M742.5,439.36c-2.35,3.71-4.47,7.16-6.67,10.54a5.26,5.26,0,0,0-1,3.31c.1,2,0,4,0,6,0,.81-.26,1.07-1,1-1-.1-2.27.41-3-.22s-.18-1.83-.22-2.78c0-1.95.34-4-.18-5.81s-1.89-3.23-2.9-4.83l-3.81-6a1.73,1.73,0,0,1-.46-1.17c1.38,0,2.75,0,4.13,0,.63,0,.79.47,1,.87l3.41,5.7.83,1.38.84-.92c1.22-2.05,2.42-4.09,3.58-6.16a1.47,1.47,0,0,1,1.54-.88c1.17,0,2.36,0,3.82,0" transform="translate(-7.5 -268.71)"/><path class="cls-1" d="M538.16,450.15l.48.37a4.49,4.49,0,0,1,2.6,4.77,4.86,4.86,0,0,1-3.61,4.5,8.65,8.65,0,0,1-2.38.39c-2.38,0-4.77,0-7.14,0-.73,0-1.05-.14-1-1,0-5.63,0-11.24,0-16.86,0-.72.11-1.08,1-1.06,2.32.07,4.63,0,7,.05a6.49,6.49,0,0,1,2.82.67,4.51,4.51,0,0,1,1.08,7.35l-.76.75m-5.3,7.81v-.07a26,26,0,0,0,3.06,0,3.11,3.11,0,0,0,.14-6.18,34.27,34.27,0,0,0-5.82-.21c-.59,0-.7.33-.7.83,0,1.56,0,3.13,0,4.69,0,.84.35,1,1.05,1s1.53,0,2.29,0m-.11-8.71v-.07c.8,0,1.61.06,2.42,0,1.8-.13,2.75-1.1,2.74-2.73a2.58,2.58,0,0,0-2.71-2.77c-1.61-.1-3.23,0-4.85-.08-.65,0-.84.27-.81.88,0,1.29,0,2.58,0,3.87,0,.72.29,1,1,.92s1.51,0,2.27,0" transform="translate(-7.5 -268.71)"/><path class="cls-1" d="M705.9,439.45l.81-.09h14.58c1.17,0,1.2,0,1.19,1.14,0,2.88.38,2.33-2.38,2.38-.7,0-1.4,0-2.09,0-1.93,0-1.69-.23-1.69,1.77,0,4.75,0,9.5,0,14.25,0,1.26,0,1.26-1.18,1.29h-2.44l-.58-.58v-1.14c0-4.76,0-9.51,0-14.26,0-1.31,0-1.32-1.33-1.32s-2.6,0-3.9,0c-.66,0-1-.15-1-.89s0-1.61,0-2.56" transform="translate(-7.5 -268.71)"/><path class="cls-1" d="M459.52,441.35a31.48,31.48,0,0,1,4.43.2,6.65,6.65,0,0,1,5.19,4.18A12.63,12.63,0,0,1,469,456.1a6.67,6.67,0,0,1-6.17,4c-2.48.13-5,0-7.45.08-1,0-.82-.61-.82-1.19v-14.1c0-.86.05-1.74,0-2.59s.29-1,1.05-1c1.23.05,2.48,0,4,0M457,450.72c0,2.1,0,4.2,0,6.3,0,.68.15,1,.9,1,1.56-.06,3.13,0,4.68-.08a4.48,4.48,0,0,0,4.2-3,11.41,11.41,0,0,0,.2-7.77,4.66,4.66,0,0,0-4.59-3.46c-1.46,0-2.91,0-4.36-.05-.75,0-1.05.18-1,1,.05,2.05,0,4.1,0,6.16" transform="translate(-7.5 -268.71)"/><path class="cls-1" d="M515.16,450.71a11.11,11.11,0,0,1-.28,2.79c-1,4.51-4.45,7.15-9.18,7a8.68,8.68,0,0,1-8.36-7.63,13.45,13.45,0,0,1,.25-5.32,8.9,8.9,0,0,1,17.2.15,9.39,9.39,0,0,1,.37,3m-2.56-.27a8,8,0,0,0-1-4.14,6.26,6.26,0,0,0-11.33,1.11,12.07,12.07,0,0,0-.37,5.28,6.22,6.22,0,0,0,5.86,5.67,6.11,6.11,0,0,0,6.59-5,12.25,12.25,0,0,0,.28-2.94" transform="translate(-7.5 -268.71)"/><path class="cls-1" d="M397.51,460.2v-7.35c0-3.4,0-6.81,0-10.21,0-1.26,0-1.28,1.19-1.28,3.79,0,7.57,0,11.35,0l1,.28a2.43,2.43,0,0,1-.07,1.74l-1,.22h-8.61c-1.5,0-1.39,0-1.38,1.43,0,1.08,0,2.16,0,3.24-.05.84.23,1.14,1.11,1.12,2.31-.05,4.63,0,7,0h1.13l1.16.29v1.58l-1,.29c-2.31,0-4.63,0-7,0h-1.14c-1.22,0-1.23,0-1.25,1.28,0,1.4,0,2.81,0,4.21,0,.71.23.94.93.93,2.75,0,5.52,0,8.26,0h1.14c1.19,0,1.65.68,1.29,1.86l-.63.37H397.51" transform="translate(-7.5 -268.71)"/><path class="cls-1" d="M392.68,451.56h-9.21c-.73-.05-1.09.17-1.06,1,0,1.5,0,3,0,4.54,0,.74.3.9,1,.89q4.78,0,9.58,0c1.07,0,1.07,0,1.09,1.08s0,1.15-1.18,1.15c-3.94,0-7.88,0-11.83,0-.79,0-1.14-.14-1.13-1.06,0-5.56,0-11.14,0-16.71,0-.84.25-1.11,1.1-1.1,3.84,0,7.68,0,11.52,0,1,0,1,0,1,1.11s0,1.12-1,1.13c-3,0-5.95,0-8.92,0-1.14,0-1.16,0-1.17,1.14s.06,2.38,0,3.57c-.06.91.33,1.09,1.13,1.07,2.49,0,5,0,7.47,0,2,0,2,0,1.67,2.18" transform="translate(-7.5 -268.71)"/><path class="cls-1" d="M439.51,449.21a4.68,4.68,0,0,0,1.76.16c2.49,0,5,0,7.47,0l1.12.32,0,1.58-1,.26h-8.6l-.72.64q0,2.6,0,5.19l.59.58h1.15c3,0,5.94,0,8.91,0,.9,0,.94.46.93,1.11s.12,1.17-.85,1.16c-4.11,0-8.22,0-12.35,0-.68,0-.92-.22-.92-.92q0-8.52,0-17c0-.73.28-.92.95-.92,3.95,0,7.89,0,11.84,0,.94,0,.86.53.87,1.13s.05,1.15-.87,1.14c-3,0-6,0-8.93,0-1.29,0-1.31,0-1.32,1.32s0,2.9,0,4.29" transform="translate(-7.5 -268.71)"/><path class="cls-1" d="M547.29,449.38h8.57c2,0,2,0,1.7,2.18h-8.1c-2.54,0-2.13-.32-2.17,2.1,0,1.13,0,2.27,0,3.41,0,.72.25.91.93.9,3.19,0,6.37,0,9.57,0,1.07,0,1.07,0,1.1,1.08s0,1.15-1.18,1.15c-4,0-7.9,0-11.84,0-.8,0-1.12-.16-1.12-1.07q.06-8.36,0-16.71c0-.86.26-1.11,1.09-1.1,3.84,0,7.68,0,11.52,0,1,0,1,0,1,1.11s0,1.12-1,1.13c-3,0-6,0-8.94,0-1.12,0-1.13,0-1.15,1.14v4.63" transform="translate(-7.5 -268.71)"/><path class="cls-1" d="M360.9,450.75q0-4.12,0-8.26c0-1.11,0-1.13,1.16-1.13,2.16,0,4.33,0,6.47,0,4.08.1,6.56,2.09,7.52,6a13.21,13.21,0,0,1-.25,7.5,7,7,0,0,1-6.68,5.22c-2.48.13-5,0-7.45.07-.7,0-.79-.31-.78-.87,0-2.86,0-5.72,0-8.59m2.44.05c0,2.05,0,4.1,0,6.16,0,.79.25,1.05,1,1,1.46-.05,2.93,0,4.38-.06a4.62,4.62,0,0,0,4.64-3.58,12,12,0,0,0,.14-6.86,4.89,4.89,0,0,0-5-3.84c-1.35-.05-2.7,0-4.05,0-1.1,0-1.12,0-1.12,1.21,0,2,0,4,0,6" transform="translate(-7.5 -268.71)"/><path class="cls-1" d="M615.87,450c0,3.08,0,6.15,0,9.24,0,.76-.18,1.08-1,1-1-.09-2.31.41-3-.19s-.23-1.94-.24-2.94c0-5.46,0-10.92,0-16.37,0-1.32,0-1.35,1.33-1.33.9,0,2-.39,2.65.18s.21,1.73.23,2.63c0,2.59,0,5.19,0,7.78" transform="translate(-7.5 -268.71)"/><path class="cls-1" d="M703.39,450q0,4.55,0,9.08c0,1.14,0,1.17-1.15,1.16-1,0-2.17.39-2.82-.18s-.23-1.83-.23-2.78c0-5.52,0-11,0-16.53,0-1.32,0-1.35,1.29-1.33.92,0,2-.38,2.67.18s.22,1.73.25,2.63c0,2.59,0,5.18,0,7.77" transform="translate(-7.5 -268.71)"/><path class="cls-1" d="M489.57,452.07c0,2.38-.06,4.76,0,7.14,0,1-.44,1-1.17,1-1.27,0-1.3,0-1.31-1,0-4.55,0-9.08,0-13.63v-1.13c0-.6-.18-.88-.83-.87-1.46,0-2.92,0-4.39,0-1,0-1-.05-1-1.15s0-1.09,1.08-1.09q6.4,0,12.81,0c1.06,0,1.06,0,1.06,1.09s0,1.13-1,1.15c-1.41,0-2.82,0-4.22,0-.78,0-1,.25-1,1,0,2.48,0,5,0,7.46" transform="translate(-7.5 -268.71)"/><path class="cls-1" d="M524.22,452.21l.07.8c0,1.94,0,1.53-1.53,1.55s-3.12,0-4.68,0c-1.06,0-.87-.66-.91-1.29s.1-1.19.94-1.08h6.11" transform="translate(-7.5 -268.71)"/><path class="cls-1" d="M476.05,452.21c.9,0,1.82,0,2.74,0l.67.68c.16,1.49,0,1.67-1.46,1.67s-3.11,0-4.67,0c-1,.05-1-.47-1-1.2s0-1.27,1-1.19,1.82,0,2.73,0" transform="translate(-7.5 -268.71)"/><path class="cls-2" d="M7.5,372.05a78.93,78.93,0,0,1,.93-8.11A97.94,97.94,0,0,1,19.32,328c12.41-23.42,31.12-40,55.39-50.32a111.18,111.18,0,0,1,35.17-8.58c27-2.12,52.06,3.8,74.69,18.86,21.28,14.17,36,33.4,43.52,57.95a97.42,97.42,0,0,1,3.57,40.34C228.48,413,216.43,435,196.43,452.7c-16.05,14.21-34.82,22.9-55.91,26.64-4.2.74-8.44,1.17-12.69,1.59l-1.48.36H113.54l-1.47-.37a127.93,127.93,0,0,1-18.74-2.85c-27.09-6.51-49.27-20.62-65.84-43.15A99.48,99.48,0,0,1,9,390.37c-.35-2.16-.64-4.33-.82-6.54,0-.39.19-1.14-.71-1m150.32-31.92c.21-.68.36-1.18.49-1.68.9-3.63,1.8-7.24,2.69-10.86.44-1.78.44-1.81-1.32-2.34a67.63,67.63,0,0,0-14.52-2.58,58.09,58.09,0,0,0-23.29,2.63c-12.93,4.35-22.36,12.6-26.85,25.69a50.37,50.37,0,0,0,1.66,38,36.83,36.83,0,0,0,20.37,19.88,52.89,52.89,0,0,0,18.11,3.6,73.56,73.56,0,0,0,13.76-.87,59.94,59.94,0,0,0,13.5-3.47c1.86-.74,1.62-.42,1.62-2.43q0-13.89,0-27.81c0-4.79,0-9.59,0-14.4,0-1.42,0-1.45-1.39-1.45-9.13,0-18.27,0-27.4,0-1.06,0-1.36.32-1.35,1.36.07,3.53,0,7.07,0,10.6,0,1.49,0,1.51,1.57,1.52h10.2c1.46,0,1.48,0,1.51,1.34,0,6.41,0,12.81,0,19.21,0,.89-.18,1.3-1.16,1.41a69,69,0,0,1-10.16.67c-11.14-.42-19.71-6.83-23.14-17.41a41.35,41.35,0,0,1-1.17-20.94c3-15.35,14.23-22.33,26.62-22.94a46.71,46.71,0,0,1,19.61,3.29M40,407.33c-.14.58-.26,1-.31,1.35-.46,3.77-.93,7.54-1.37,11.31-.19,1.64-.14,1.65,1.53,2a48.93,48.93,0,0,0,17.68.81c8.66-1.27,17.55-5.06,20.9-18.3a54,54,0,0,0,1.4-13.28q0-27.51,0-55v-1c.07-.84-.27-1.16-1.14-1.16-5.2,0-10.41,0-15.61,0-.75,0-1.11.21-1.08,1s0,1.87,0,2.8q0,27.6,0,55.2a28,28,0,0,1-.84,7.13c-1.48,5.55-5,8.36-10.75,8.68A26.9,26.9,0,0,1,40,407.33m157.86-27.7V350.85c0-3.87,0-7.73,0-11.6,0-1-.32-1.27-1.26-1.26q-7.6,0-15.2,0c-1,0-1.54.21-1.37,1.32v80.56c0,1.74,0,1.75,1.73,1.75h13.8c2.46,0,2.28.34,2.28-2.2V379.63m-9-47.73a10,10,0,1,0-9.94-9.89,9.94,9.94,0,0,0,9.94,9.89" transform="translate(-7.5 -268.71)"/><path class="cls-3" d="M157.82,350.93a46.56,46.56,0,0,0-19.61-3.29c-12.4.61-23.66,7.59-26.62,22.94a41.46,41.46,0,0,0,1.16,20.94c3.44,10.58,12,17,23.15,17.41a69.18,69.18,0,0,0,10.16-.67c1-.11,1.16-.52,1.15-1.41,0-6.4,0-12.8,0-19.21,0-1.31-.05-1.33-1.52-1.34h-10.2c-1.53,0-1.55,0-1.57-1.52,0-3.54,0-7.07,0-10.6,0-1,.29-1.37,1.34-1.36,9.14,0,18.28,0,27.41,0,1.37,0,1.39,0,1.39,1.45,0,4.81,0,9.61,0,14.4q0,13.9,0,27.82c0,2,.24,1.67-1.62,2.42a59.94,59.94,0,0,1-13.5,3.47,71.9,71.9,0,0,1-13.76.86,52.65,52.65,0,0,1-18.11-3.59,36.87,36.87,0,0,1-20.38-19.88,50.41,50.41,0,0,1-1.65-38c4.48-13.1,13.91-21.34,26.85-25.69a58.09,58.09,0,0,1,23.29-2.63,67.74,67.74,0,0,1,14.52,2.58c1.76.53,1.76.56,1.32,2.34-.89,3.62-1.79,7.23-2.69,10.86-.13.5-.29,1-.49,1.68" transform="translate(-7.5 -268.71)"/><path class="cls-3" d="M40,407.33a26.82,26.82,0,0,0,10.4,1.58c5.76-.32,9.28-3.13,10.75-8.68A27.56,27.56,0,0,0,62,393.1q0-27.59,0-55.2c0-.93,0-1.88,0-2.8s.33-1,1.08-1c5.19,0,10.4,0,15.61,0,.86,0,1.21.32,1.14,1.17l0,1q0,27.5,0,55a54,54,0,0,1-1.4,13.28c-3.34,13.24-12.23,17-20.9,18.3A48.88,48.88,0,0,1,39.83,422c-1.69-.38-1.73-.38-1.53-2,.44-3.77.91-7.54,1.36-11.31.06-.38.18-.77.32-1.35" transform="translate(-7.5 -268.71)"/><path class="cls-3" d="M197.84,379.63v39.78c0,2.55.18,2.2-2.28,2.21h-13.8c-1.71,0-1.73,0-1.73-1.75V339.31c-.17-1.11.39-1.33,1.37-1.32q7.6,0,15.2,0c.94,0,1.27.29,1.26,1.26-.05,3.87,0,7.73,0,11.6v28.78" transform="translate(-7.5 -268.71)"/><path class="cls-4" d="M188.86,331.9a10,10,0,1,1,10-10,9.95,9.95,0,0,1-10,10" transform="translate(-7.5 -268.71)"/></svg>